<?xml version="1.0" encoding="UTF-8"?>
<svg xmlns="http://www.w3.org/2000/svg" version="1.1" viewBox="0 0 50 50">
  <defs>
    <style>
      .cls-1 {
        fill: #fff;
      }
    </style>
  </defs>
  <!-- Generator: Adobe Illustrator 28.7.4, SVG Export Plug-In . SVG Version: 1.2.0 Build 166)  -->
  <g>
    <g id="Layer_1">
      <path class="cls-1" d="M41,4H9c-2.8,0-5,2.2-5,5v32c0,2.8,2.2,5,5,5h32c2.8,0,5-2.2,5-5V9c0-2.8-2.2-5-5-5ZM17,20v19h-6v-19h6ZM11,14.5c0-1.4,1.2-2.5,3-2.5s2.9,1.1,3,2.5c0,1.4-1.1,2.5-3,2.5s-3-1.1-3-2.5ZM39,39h-6v-10c0-2-1-4-3.5-4h0c-2.4,0-3.4,2.1-3.4,4v10h-6v-19h6v2.6s1.9-2.6,5.8-2.6,7.2,2.7,7.2,8.3v10.7Z"/>
    </g>
  </g>
</svg>