<?xml version="1.0" encoding="UTF-8"?>
<svg xmlns="http://www.w3.org/2000/svg" version="1.1" viewBox="0 0 587.4 584.6">
  <defs>
    <style>
      .cls-1 {
        fill: #fff;
      }
    </style>
  </defs>
  <!-- Generator: Adobe Illustrator 28.7.4, SVG Export Plug-In . SVG Version: 1.2.0 Build 166)  -->
  <g>
    <g id="Layer_1">
      <g>
        <path class="cls-1" d="M290.9,27.1c-72.4,0-81.5.3-109.9,1.6-28.4,1.3-47.8,5.8-64.7,12.4-17.5,6.8-32.4,15.9-47.2,30.8-14.8,14.8-23.9,29.7-30.8,47.2-6.6,17-11.1,36.3-12.4,64.7-1.3,28.4-1.6,37.5-1.6,109.9s.3,81.5,1.6,109.9c1.3,28.4,5.8,47.8,12.4,64.7,6.8,17.5,15.9,32.4,30.8,47.2,14.8,14.8,29.7,23.9,47.2,30.8,17,6.6,36.3,11.1,64.7,12.4,28.4,1.3,37.5,1.6,109.9,1.6s81.5-.3,109.9-1.6c28.4-1.3,47.8-5.8,64.7-12.4,17.5-6.8,32.4-15.9,47.2-30.8,14.8-14.8,23.9-29.7,30.8-47.2,6.6-17,11.1-36.3,12.4-64.7,1.3-28.4,1.6-37.5,1.6-109.9s-.3-81.5-1.6-109.9c-1.3-28.4-5.8-47.8-12.4-64.7-6.8-17.5-15.9-32.4-30.8-47.2-14.8-14.8-29.7-23.9-47.2-30.8-17-6.6-36.3-11.1-64.7-12.4-28.4-1.3-37.5-1.6-109.9-1.6ZM290.9,75.2c71.2,0,79.6.3,107.8,1.6,26,1.2,40.1,5.5,49.5,9.2,12.4,4.8,21.3,10.6,30.7,19.9,9.3,9.3,15.1,18.2,19.9,30.7,3.7,9.4,8,23.5,9.2,49.5,1.3,28.1,1.6,36.6,1.6,107.8s-.3,79.6-1.6,107.8c-1.2,26-5.5,40.1-9.2,49.5-4.8,12.4-10.6,21.3-19.9,30.7-9.3,9.3-18.2,15.1-30.7,19.9-9.4,3.7-23.5,8-49.5,9.2-28.1,1.3-36.5,1.6-107.8,1.6s-79.6-.3-107.8-1.6c-26-1.2-40.1-5.5-49.5-9.2-12.4-4.8-21.3-10.6-30.7-19.9-9.3-9.3-15.1-18.2-19.9-30.7-3.7-9.4-8-23.5-9.2-49.5-1.3-28.1-1.6-36.6-1.6-107.8s.3-79.6,1.6-107.8c1.2-26,5.5-40.1,9.2-49.5,4.8-12.4,10.6-21.3,19.9-30.7,9.3-9.3,18.2-15.1,30.7-19.9,9.4-3.7,23.5-8,49.5-9.2,28.1-1.3,36.6-1.6,107.8-1.6"/>
        <path class="cls-1" d="M290.9,382.7c-49.1,0-88.9-39.8-88.9-88.9s39.8-88.9,88.9-88.9,88.9,39.8,88.9,88.9-39.8,88.9-88.9,88.9ZM290.9,156.9c-75.6,0-136.9,61.3-136.9,136.9s61.3,136.9,136.9,136.9,136.9-61.3,136.9-136.9-61.3-136.9-136.9-136.9M465.2,151.4c0,17.7-14.3,32-32,32s-32-14.3-32-32,14.3-32,32-32,32,14.3,32,32"/>
      </g>
    </g>
  </g>
</svg>