<?xml version="1.0" encoding="UTF-8"?>
<svg id="Layer_2" xmlns="http://www.w3.org/2000/svg" viewBox="0 0 496 496">
  <defs>
    <style>
      .cls-1 {
        fill: #fff;
      }

      .cls-2 {
        fill: #9aff9a;
      }
    </style>
  </defs>
  <g id="Layer_3">
    <rect class="cls-1" width="496" height="496"/>
    <rect class="cls-2" x="44" y="171" width="141.57" height="83.49"/>
    <rect class="cls-2" x="44" y="269.92" width="292.22" height="83.49"/>
    <rect class="cls-2" x="44" y="368.84" width="413.83" height="83.49"/>
    <g>
      <path d="M76.53,195.71v43.99h-7.69v-43.99h-16.25v-6.58h40.18v6.58h-16.25Z"/>
      <path d="M122.1,239.69v-23.06c0-3.72-2.3-7.53-8.32-7.53s-8.64,3.8-8.64,7.53v23.06h-7.21v-56.43h7.21v24.25h.08c1.74-2.7,4.83-4.6,10.46-4.6,7.85,0,13.63,4.99,13.63,13v23.78h-7.21Z"/>
      <path d="M169.57,219.48l-4.04,4.04h-21.64c.24,4.44,4.36,10.7,12.76,10.7,4.6,0,7.93-1.27,10.46-2.93l-.79,6.97c-2.54,1.35-5.79,2.3-10.62,2.3-10.22,0-19.26-7.61-19.26-18.78,0-12.21,9.51-18.86,17.83-18.86,9.91,0,15.53,6.97,15.53,13.63,0,1.11-.08,2.14-.24,2.93ZM154.67,209.1c-4.52,0-9.35,3.57-10.3,8.56h18.07c.08-.32.08-.63.08-.95,0-3.57-3.09-7.61-7.85-7.61Z"/>
      <path d="M95.55,293.82c-2.46-1.58-7.37-3.25-12.52-3.25-9.67,0-19.89,6.26-19.89,19.1s9.99,19.02,19.89,19.02c5.86,0,9.83-1.11,12.92-2.85l-.71,6.97c-3.17,1.67-6.74,2.38-13.08,2.38-12.52,0-26.79-8.72-26.79-25.68s14.42-25.76,26.79-25.76c6.82,0,11.65,1.51,14.74,3.25l-1.35,6.82Z"/>
      <path d="M121.15,335.67c-10.7,0-19.1-7.69-19.1-18.78s8.4-18.86,19.1-18.86,19.02,7.69,19.02,18.86-8.32,18.78-19.02,18.78ZM121.15,304.52c-6.34,0-11.81,4.99-11.81,12.52s5.47,12.44,11.81,12.44,11.73-4.99,11.73-12.44-5.47-12.52-11.73-12.52Z"/>
      <path d="M171.47,334.79v-23.06c0-3.73-2.3-7.53-8.32-7.53s-8.64,3.8-8.64,7.53v23.06h-7.21v-35.9h6.58v4.68h.08c1.58-3.17,4.83-5.55,11.1-5.55,7.85,0,13.63,4.99,13.63,13v23.78h-7.21Z"/>
      <path d="M209.43,304.68h-11.41v19.1c0,4.12,2.14,5.55,5.94,5.55,1.27,0,2.38-.16,3.25-.47l-.63,5.71c-.95.48-2.54.63-3.96.63-6.5,0-11.73-3.72-11.73-10.7v-19.81h-7.05v-5.79h7.05v-7.29l7.13-3.72v11.02h12.68l-1.27,5.79Z"/>
      <path d="M246.6,314.58l-4.04,4.04h-21.64c.24,4.44,4.36,10.7,12.76,10.7,4.6,0,7.93-1.27,10.46-2.93l-.79,6.97c-2.54,1.35-5.79,2.3-10.62,2.3-10.22,0-19.26-7.61-19.26-18.78,0-12.21,9.51-18.86,17.83-18.86,9.91,0,15.53,6.97,15.53,13.63,0,1.11-.08,2.14-.24,2.93ZM231.7,304.2c-4.52,0-9.35,3.57-10.3,8.56h18.07c.08-.32.08-.63.08-.95,0-3.57-3.09-7.61-7.85-7.61Z"/>
      <path d="M278.14,334.79v-23.06c0-3.73-2.3-7.53-8.32-7.53s-8.64,3.8-8.64,7.53v23.06h-7.21v-35.9h6.58v4.68h.08c1.58-3.17,4.83-5.55,11.1-5.55,7.85,0,13.63,4.99,13.63,13v23.78h-7.21Z"/>
      <path d="M316.11,304.68h-11.41v19.1c0,4.12,2.14,5.55,5.94,5.55,1.27,0,2.38-.16,3.25-.47l-.63,5.71c-.95.48-2.54.63-3.96.63-6.5,0-11.73-3.72-11.73-10.7v-19.81h-7.05v-5.79h7.05v-7.29l7.13-3.72v11.02h12.68l-1.27,5.79Z"/>
      <path d="M73.76,429.9h-16.41v-50.56h14.11c6.74,0,14.19,4.36,14.19,13.24,0,3.72-1.74,7.61-4.68,8.88,4.68,1.35,9.35,6.58,9.35,13.08,0,10.46-8.72,15.38-16.56,15.38ZM70.19,385.67h-5.55v13.63h5.55c4.2,0,7.85-1.98,7.85-6.74s-3.65-6.9-7.85-6.9ZM72.17,405.49h-7.53v18.07h7.53c5.39,0,10.46-2.77,10.46-9.04s-5.07-9.03-10.46-9.03Z"/>
      <path d="M123.13,430.77c-2.46-.55-5.15-2.62-5.71-5.63-1.66,4.2-5.47,5.63-9.59,5.63-7.13,0-11.57-5.23-11.57-11.02,0-6.97,5.71-10.94,11.81-11.49l8.4-.79v-2.3c0-3.25-1.9-5.87-6.97-5.87-3.57,0-7.29,1.11-9.91,2.85l-1.43-5.94c3.25-2.14,7.37-3.09,11.73-3.09,8,0,13.79,4.52,13.79,13v14.5c0,3.25,1.74,5.15,4.04,5.55l-4.6,4.6ZM116.47,413.41l-6.89.63c-4.6.4-6.42,3.17-6.42,5.79s2.06,4.83,5.31,4.83c4.28,0,8-3.25,8-8.08v-3.17Z"/>
      <path d="M157.05,429.9v-23.06c0-3.73-2.3-7.53-8.32-7.53s-8.64,3.8-8.64,7.53v23.06h-7.21v-35.9h6.58v4.68h.08c1.58-3.17,4.83-5.55,11.1-5.55,7.85,0,13.63,4.99,13.63,13v23.78h-7.21Z"/>
      <path d="M187.72,448.2c-9.83,0-16.33-5.47-16.33-12.92,0-6.26,4.2-9.59,7.85-10.38l-4.04-4.04c0-2.62,2.14-4.99,4.6-5.71-3.25-1.82-5.87-5.23-5.87-9.91,0-7.05,5.55-12.13,13.47-12.13,1.9,0,3.49.24,4.75.55,1.27.32,3.09.55,4.91.55,1.66,0,4.04-.63,5.23-1.35l1.35,5.94c-.95.63-3.09,1.11-4.44,1.11.79.95,1.58,3.01,1.58,5.31,0,6.42-4.99,12.13-13.39,12.13-2.85,0-4.44.4-4.44,1.98,0,.32.24.95,1.03,1.27l9.67,3.41c6.26,2.22,10.07,5.71,10.07,12.28s-6.42,11.89-16.01,11.89ZM191.44,430.13l-6.18-1.82c-4.36,0-7.29,3.01-7.29,6.9,0,3.49,3.17,6.97,9.59,6.97s9.35-3.25,9.35-6.02-1.9-4.99-5.47-6.02ZM187.4,398.99c-3.96,0-6.9,2.93-6.9,6.18s2.93,6.18,6.9,6.18c3.65,0,6.82-2.77,6.82-6.18s-2.85-6.18-6.82-6.18Z"/>
      <path d="M247.87,385.91v43.99h-7.69v-43.99h-16.25v-6.58h40.18v6.58h-16.25Z"/>
      <path d="M293.44,429.9v-23.06c0-3.73-2.3-7.53-8.32-7.53s-8.64,3.8-8.64,7.53v23.06h-7.21v-56.43h7.21v24.25h.08c1.74-2.69,4.83-4.6,10.46-4.6,7.85,0,13.63,4.99,13.63,13v23.78h-7.21Z"/>
      <path d="M340.91,409.69l-4.04,4.04h-21.64c.24,4.44,4.36,10.7,12.76,10.7,4.6,0,7.93-1.27,10.46-2.93l-.79,6.97c-2.54,1.35-5.79,2.3-10.62,2.3-10.22,0-19.26-7.61-19.26-18.78,0-12.21,9.51-18.86,17.83-18.86,9.91,0,15.53,6.97,15.53,13.63,0,1.11-.08,2.14-.24,2.93ZM326.01,399.3c-4.52,0-9.35,3.57-10.3,8.56h18.07c.08-.32.08-.63.08-.95,0-3.57-3.09-7.61-7.85-7.61Z"/>
      <path d="M365.79,430.77c-10.7,0-19.1-7.69-19.1-18.78s8.4-18.86,19.1-18.86,19.02,7.69,19.02,18.86-8.32,18.78-19.02,18.78ZM365.79,399.62c-6.34,0-11.81,4.99-11.81,12.52s5.47,12.44,11.81,12.44,11.73-4.99,11.73-12.44-5.47-12.52-11.73-12.52Z"/>
      <path d="M411.36,401.52c-.63-.16-1.58-.32-2.62-.32-4.68,0-9.59,2.22-9.59,10.54v18.15h-7.21v-35.9h7.21v7.29h.08c1.35-5.15,5.39-7.77,10.38-7.77,1.03,0,2.7.24,3.49.55l-1.74,7.45Z"/>
      <path d="M436.25,426.41c-5.39,13.24-11.25,19.02-18.31,22.19l-4.6-4.6c6.34-2.77,11.33-6.97,15.53-17.28l-13.39-32.73h7.45l6.58,16.25c.87,2.22,2.14,5.39,3.01,8.24h.16c1.03-2.69,2.38-6.02,3.25-8.16l6.66-16.33h6.89l-13.24,32.41Z"/>
    </g>
  </g>
</svg>